<svg width="32" height="32" viewBox="0 0 32 32" fill="none" xmlns="http://www.w3.org/2000/svg">
<g id="close">
<path id="close_2" d="M8.30056 6.41482C7.77986 5.89412 6.93564 5.89412 6.41494 6.41482C5.89424 6.93552 5.89424 7.77974 6.41494 8.30043L14.1146 16.0001L6.41502 23.6996C5.89432 24.2203 5.89432 25.0646 6.41502 25.5853C6.93572 26.106 7.77994 26.106 8.30064 25.5853L16.0002 17.8857L23.6998 25.5853C24.2205 26.106 25.0647 26.106 25.5854 25.5853C26.1061 25.0646 26.1061 24.2203 25.5854 23.6996L17.8858 16.0001L25.5855 8.30043C26.1062 7.77974 26.1062 6.93552 25.5855 6.41482C25.0648 5.89412 24.2206 5.89412 23.6999 6.41482L16.0002 14.1145L8.30056 6.41482Z" fill="#57534E"/>
</g>
</svg>
