<svg width="40" height="40" viewBox="0 0 40 40" fill="none" xmlns="http://www.w3.org/2000/svg">
<g id="math-plus">
<path id="math-plus_2" d="M20.0003 6.66675C19.0799 6.66675 18.3337 7.41294 18.3337 8.33341V18.3334H8.33366C7.41318 18.3334 6.66699 19.0796 6.66699 20.0001C6.66699 20.9206 7.41318 21.6667 8.33366 21.6667H18.3337V31.6667C18.3337 32.5872 19.0799 33.3334 20.0003 33.3334C20.9208 33.3334 21.667 32.5872 21.667 31.6667V21.6667H31.667C32.5875 21.6667 33.3337 20.9206 33.3337 20.0001C33.3337 19.0796 32.5875 18.3334 31.667 18.3334H21.667V8.33341C21.667 7.41294 20.9208 6.66675 20.0003 6.66675Z" fill="#57534E"/>
</g>
</svg>
