<svg width="18" height="18" viewBox="0 0 18 18" fill="none" xmlns="http://www.w3.org/2000/svg">
<g id=" Round / Communication / phone">
<path id="&#240;&#159;&#148;&#185;Icon Color" fill-rule="evenodd" clip-rule="evenodd" d="M14.4223 11.4448L12.5173 11.2273C12.0598 11.1748 11.6098 11.3323 11.2873 11.6548L9.90729 13.0348C7.78479 11.9548 6.04479 10.2223 4.96479 8.09232L6.35229 6.70482C6.67479 6.38232 6.83229 5.93232 6.77979 5.47482L6.56229 3.58482C6.47229 2.82732 5.83479 2.25732 5.06979 2.25732H3.77229C2.92479 2.25732 2.21979 2.96232 2.27229 3.80982C2.66979 10.2148 7.79229 15.3298 14.1898 15.7273C15.0373 15.7798 15.7423 15.0748 15.7423 14.2273V12.9298C15.7498 12.1723 15.1798 11.5348 14.4223 11.4448Z" fill="#A8A29E"/>
</g>
</svg>
