<svg width="25" height="24" viewBox="0 0 25 24" fill="none" xmlns="http://www.w3.org/2000/svg">
<g id=" Round / Notification / event_available">
<path id="&#240;&#159;&#148;&#185; Icon Color" fill-rule="evenodd" clip-rule="evenodd" d="M16.5 10.53C16.21 10.24 15.73 10.24 15.44 10.53L11.09 14.88L9.5 13.29C9.21 13 8.73 13 8.44 13.29C8.15 13.58 8.15 14.06 8.44 14.35L10.38 16.29C10.77 16.68 11.4 16.68 11.79 16.29L16.49 11.59C16.79 11.3 16.79 10.82 16.5 10.53ZM19.5 3H18.5V2C18.5 1.45 18.05 1 17.5 1C16.95 1 16.5 1.45 16.5 2V3H8.5V2C8.5 1.45 8.05 1 7.5 1C6.95 1 6.5 1.45 6.5 2V3H5.5C4.39 3 3.51 3.9 3.51 5L3.5 19C3.5 20.1 4.39 21 5.5 21H19.5C20.6 21 21.5 20.1 21.5 19V5C21.5 3.9 20.6 3 19.5 3ZM18.5 19H6.5C5.95 19 5.5 18.55 5.5 18V8H19.5V18C19.5 18.55 19.05 19 18.5 19Z" fill="#A8A29E"/>
</g>
</svg>
