<svg width="32" height="32" viewBox="0 0 32 32" fill="none" xmlns="http://www.w3.org/2000/svg">
<g id=" Round / Action / today">
<path id="&#240;&#159;&#148;&#185;Icon Color" fill-rule="evenodd" clip-rule="evenodd" d="M25.3333 3.99992H24V2.66659C24 1.93325 23.4 1.33325 22.6667 1.33325C21.9333 1.33325 21.3333 1.93325 21.3333 2.66659V3.99992H10.6667V2.66659C10.6667 1.93325 10.0667 1.33325 9.33333 1.33325C8.6 1.33325 8 1.93325 8 2.66659V3.99992H6.66667C5.18667 3.99992 4.01333 5.19992 4.01333 6.66658L4 25.3333C4 26.7999 5.18667 27.9999 6.66667 27.9999H25.3333C26.8 27.9999 28 26.7999 28 25.3333V6.66658C28 5.19992 26.8 3.99992 25.3333 3.99992ZM24 25.3333H8C7.26667 25.3333 6.66667 24.7333 6.66667 23.9999V10.6666H25.3333V23.9999C25.3333 24.7333 24.7333 25.3333 24 25.3333ZM10.6667 13.3333H14.6667C15.4 13.3333 16 13.9333 16 14.6666V18.6666C16 19.3999 15.4 19.9999 14.6667 19.9999H10.6667C9.93333 19.9999 9.33333 19.3999 9.33333 18.6666V14.6666C9.33333 13.9333 9.93333 13.3333 10.6667 13.3333Z" fill="#A8A29E"/>
</g>
</svg>
